<?xml version="1.0" encoding="utf-8"?>
<!-- Generator: Adobe Illustrator 23.0.3, SVG Export Plug-In . SVG Version: 6.00 Build 0)  -->
<svg version="1.1" xmlns="http://www.w3.org/2000/svg" xmlns:xlink="http://www.w3.org/1999/xlink" x="0px" y="0px"
	 viewBox="0 0 1799.6 1200.87" style="enable-background:new 0 0 1799.6 1200.87;" xml:space="preserve">
<style type="text/css">
	.st0{fill:#A7ADFF;}
	.st1{fill:#E3E5FC;}
	.st2{fill:#FFFFFF;}
	.st3{fill:#4B369D;}
	.st4{fill:#FDC510;}
	.st5{fill:#F44E4E;}
	.st6{fill:#978CFF;}
	.st7{fill:#EAC2AB;}
	.st8{fill:#5A54FF;}
	.st9{fill:#D4A79A;}
	.st10{fill:#27197A;}
	.st11{fill:#D7384E;}
</style>
<g id="UI">
	<g id="Desktop">
		<g>
			<path class="st0" d="M1582,861.29H665.72c-24.73,0-44.96-20.23-44.96-44.96V148.01c0-24.73,20.23-44.96,44.96-44.96H1582
				c24.73,0,44.96,20.23,44.96,44.96v668.32C1626.97,841.05,1606.73,861.29,1582,861.29z"/>
			<path class="st1" d="M1553.9,798.04H689.49c-24.73,0-44.96-20.23-44.96-44.96v-572.1c0-24.73,20.23-44.96,44.96-44.96h864.41
				c24.73,0,44.96,20.23,44.96,44.96v572.1C1598.86,777.81,1578.63,798.04,1553.9,798.04z"/>
			<path class="st1" d="M1177.01,826.7h-70.57c-1.72,0-3.12-1.41-3.12-3.12l0,0c0-1.72,1.41-3.12,3.12-3.12h70.57
				c1.72,0,3.12,1.41,3.12,3.12l0,0C1180.13,825.3,1178.73,826.7,1177.01,826.7z"/>
			<circle class="st1" cx="674.45" cy="121.5" r="7.02"/>
			<circle class="st2" cx="704.67" cy="121.5" r="7.02"/>
			<circle class="st3" cx="735.17" cy="121.5" r="7.02"/>
			<g>
				<path class="st2" d="M907.61,511.06H736.5c-4.59,0-8.35-3.76-8.35-8.35v0c0-4.59,3.76-8.35,8.35-8.35h171.11
					c4.59,0,8.35,3.76,8.35,8.35v0C915.96,507.3,912.2,511.06,907.61,511.06z"/>
				<path class="st2" d="M907.61,549.29H736.5c-4.59,0-8.35-3.76-8.35-8.35v0c0-4.59,3.76-8.35,8.35-8.35h171.11
					c4.59,0,8.35,3.76,8.35,8.35v0C915.96,545.53,912.2,549.29,907.61,549.29z"/>
				<path class="st2" d="M907.61,587.51H736.5c-4.59,0-8.35-3.76-8.35-8.35v0c0-4.59,3.76-8.35,8.35-8.35h171.11
					c4.59,0,8.35,3.76,8.35,8.35v0C915.96,583.76,912.2,587.51,907.61,587.51z"/>
				<path class="st2" d="M907.61,630.61H736.5c-4.59,0-8.35-3.76-8.35-8.35l0,0c0-4.59,3.76-8.35,8.35-8.35h171.11
					c4.59,0,8.35,3.76,8.35,8.35l0,0C915.96,626.85,912.2,630.61,907.61,630.61z"/>
				<path class="st2" d="M907.61,668.83H736.5c-4.59,0-8.35-3.76-8.35-8.35l0,0c0-4.59,3.76-8.35,8.35-8.35h171.11
					c4.59,0,8.35,3.76,8.35,8.35l0,0C915.96,665.08,912.2,668.83,907.61,668.83z"/>
				<path class="st2" d="M907.61,707.06H736.5c-4.59,0-8.35-3.76-8.35-8.35l0,0c0-4.59,3.76-8.35,8.35-8.35h171.11
					c4.59,0,8.35,3.76,8.35,8.35l0,0C915.96,703.3,912.2,707.06,907.61,707.06z"/>
			</g>
			<g>
				<path class="st2" d="M1163.66,511.06H992.55c-4.59,0-8.35-3.76-8.35-8.35v0c0-4.59,3.76-8.35,8.35-8.35h171.11
					c4.59,0,8.35,3.76,8.35,8.35v0C1172.01,507.3,1168.25,511.06,1163.66,511.06z"/>
				<path class="st2" d="M1163.66,549.29H992.55c-4.59,0-8.35-3.76-8.35-8.35v0c0-4.59,3.76-8.35,8.35-8.35h171.11
					c4.59,0,8.35,3.76,8.35,8.35v0C1172.01,545.53,1168.25,549.29,1163.66,549.29z"/>
				<path class="st2" d="M1163.66,587.51H992.55c-4.59,0-8.35-3.76-8.35-8.35v0c0-4.59,3.76-8.35,8.35-8.35h171.11
					c4.59,0,8.35,3.76,8.35,8.35v0C1172.01,583.76,1168.25,587.51,1163.66,587.51z"/>
				<path class="st2" d="M1163.66,630.61H992.55c-4.59,0-8.35-3.76-8.35-8.35l0,0c0-4.59,3.76-8.35,8.35-8.35h171.11
					c4.59,0,8.35,3.76,8.35,8.35l0,0C1172.01,626.85,1168.25,630.61,1163.66,630.61z"/>
				<path class="st2" d="M1163.66,668.83H992.55c-4.59,0-8.35-3.76-8.35-8.35l0,0c0-4.59,3.76-8.35,8.35-8.35h171.11
					c4.59,0,8.35,3.76,8.35,8.35l0,0C1172.01,665.08,1168.25,668.83,1163.66,668.83z"/>
				<path class="st2" d="M1163.66,707.06H992.55c-4.59,0-8.35-3.76-8.35-8.35l0,0c0-4.59,3.76-8.35,8.35-8.35h171.11
					c4.59,0,8.35,3.76,8.35,8.35l0,0C1172.01,703.3,1168.25,707.06,1163.66,707.06z"/>
			</g>
			<g>
				<path class="st0" d="M1393.18,344.82c-19.7-4.93-24.63-64.03-44.33-64.03c-43.28,3.93-58.28,61.28-82.65,104.28
					c3.19,17.72,18.74,31.29,37.35,31.29h173.42c20.89,0,37.98-17.09,37.98-37.98V254.04c-6.02,0.48-12.17,2.64-18.33,7.04
					C1462.14,290.64,1437.51,354.67,1393.18,344.82z"/>
				<path class="st2" d="M1477.28,202.89h-173.42c-20.89,0-37.98,17.09-37.98,37.98v137.51c0,2.28,0.24,4.51,0.63,6.69
					c24.36-43.01,39.37-100.35,82.65-104.28c19.7,0,24.63,59.11,44.33,64.03c44.33,9.85,68.96-54.18,103.44-83.74
					c6.16-4.4,12.31-6.57,18.33-7.04v-13.17C1515.26,219.98,1498.17,202.89,1477.28,202.89z"/>
				<circle class="st0" cx="1415.2" cy="269.4" r="21.86"/>
			</g>
			<path class="st2" d="M773.12,420.73h353.92c24.73,0,44.96-20.23,44.96-44.96v-127.9c0-24.73-20.23-44.96-44.96-44.96H773.12
				c-24.73,0-44.96,20.23-44.96,44.96v127.9C728.15,400.49,748.39,420.73,773.12,420.73z"/>
			<path class="st2" d="M1310.85,584.3h159.13c24.73,0,44.96-20.23,44.96-44.96v0c0-24.73-20.23-44.96-44.96-44.96h-159.13
				c-24.73,0-44.96,20.23-44.96,44.96v0C1265.89,564.06,1286.12,584.3,1310.85,584.3z"/>
			<path class="st2" d="M1310.85,697.1h159.13c24.73,0,44.96-20.23,44.96-44.96v0c0-24.73-20.23-44.96-44.96-44.96h-159.13
				c-24.73,0-44.96,20.23-44.96,44.96v0C1265.89,676.87,1286.12,697.1,1310.85,697.1z"/>
		</g>
		<ellipse class="st1" cx="1141.73" cy="1067.59" rx="330.95" ry="22.57"/>
	</g>
	<g id="Server">
		<g>
			<path class="st0" d="M756.18,1005.67H587.56c-9.45,0-17.17-7.73-17.17-17.17v-6.47c0-9.45,7.73-17.17,17.17-17.17h168.62
				c9.45,0,17.17,7.73,17.17,17.17v6.47C773.35,997.94,765.62,1005.67,756.18,1005.67z"/>
			<path class="st0" d="M756.18,1050.04H587.56c-9.45,0-17.17-7.73-17.17-17.17v-6.47c0-9.45,7.73-17.17,17.17-17.17h168.62
				c9.45,0,17.17,7.73,17.17,17.17v6.47C773.35,1042.32,765.62,1050.04,756.18,1050.04z"/>
			<path class="st0" d="M756.18,1094.86H587.56c-9.45,0-17.17-7.73-17.17-17.17v-6.47c0-9.45,7.73-17.17,17.17-17.17h168.62
				c9.45,0,17.17,7.73,17.17,17.17v6.47C773.35,1087.13,765.62,1094.86,756.18,1094.86z"/>
		</g>
		<circle class="st2" cx="586.94" cy="984.94" r="4.68"/>
		<circle class="st2" cx="755.55" cy="984.94" r="4.68"/>
		<circle class="st2" cx="587.88" cy="1027.72" r="4.68"/>
		<circle class="st2" cx="756.49" cy="1027.72" r="4.68"/>
		<circle class="st2" cx="587.88" cy="1074.2" r="4.68"/>
		<circle class="st2" cx="756.49" cy="1074.2" r="4.68"/>
	</g>
	<path id="Paint" class="st4" d="M876.91,251.98c0.58-0.4,1.15-0.8,1.73-1.19c18.2-12.37,39.98-22.62,61.57-18.39
		c38.06,7.45,55.55,49.5,79.83,74.84c17.42,18.18,44.39,31.8,70.49,29.1c21.87-2.26,25.71-25.94,20.47-43.77
		c-1.94-6.58-4.94-12.88-10.38-17.26c-5.01-4.04-17.38-9.61-23.89-6.07c11.22-6.09,25.81-3.06,35.82,4.86
		c33.85,26.79,25.31,84.09-10.97,104.23c-28.1,15.59-62.41,1.87-84.57-17.87c-25.04-22.31-32.81-56.92-56.12-80.59
		c-6.24-6.33-13.25-11.89-22.7-11.1c-18.71,1.57-21.78,21.4-34.34,31.29c-3.24,2.55-7.51,4.12-11.52,3.17
		c-2.95-0.7-5.42-2.64-8.02-4.21c-11.81-7.17-45.43-5.91-28.36-28.17C861.71,263.35,869.15,257.37,876.91,251.98z"/>
	<g id="Brush">
		<g>
			<path class="st3" d="M674.8,460.39c-8.79,9.79-20.16,21.51-25.28,34.04c-0.41,1.01-0.76,2.2-0.26,3.17
				c6.6,12.7,104.99-79.45,115.44-89.02c21.99-20.15,42.47-35.61,61.53-58.73c3.66-4.44,7.41-9.23,8.33-15.03
				c0.54-3.6-16.26,3.88-19.52,5.54c-24.95,12.68-54.24,34.93-74.62,53.78C717.67,415.19,695.59,437.24,674.8,460.39z"/>
			<g>
				<path class="st5" d="M867.37,297.19c-0.57-4.71-1.71-9.3-3.51-13.62c-4.27-10.27-12.05-20.06-23.49-22.29
					c18.56,11.69,0.78,34.47-12.58,43.7c-3.3,2.28-6.9,4.24-10.85,5.84c-10.01,4.05-23.29,7.18-25.84,19.4
					C823.87,331.09,848.3,317.62,867.37,297.19z"/>
				<path class="st0" d="M791.1,330.21c-0.02,0.11-0.06,0.21-0.08,0.32c-3.72,19.58,8.92,39.27,30.5,35.68
					c30.05-5.01,49.44-39.51,45.85-69.03C848.3,317.62,823.87,331.09,791.1,330.21z"/>
			</g>
		</g>
	</g>
</g>
<g id="Nature">
	<g id="Plant">
		<g>
			<path class="st4" d="M281.4,1026.67c-5.93-6.6-11.75-13.23-13.55-21.86c-0.93-4.47,0.62-10.59,5.17-10.85
				c2.29-0.13,4.3,1.38,6.33,2.45c7.81,4.14,7.86-5.17,5.71-10.1c-3.78-8.69-9.56-17.36-8.28-26.75c0.08-0.59,0.21-1.21,0.62-1.65
				c0.61-0.65,1.63-0.65,2.51-0.54c6.01,0.79,12.2,8.6,18.39,6.05c15.12-6.22,2.04-40.95,1.01-51.67c-0.2-2.05-0.37-4.24,0.62-6.04
				c1.92-3.5,7.17-3.57,10.61-1.56c5.28,3.09,8.28,9.09,14.04,11.53c4.54,1.92,9.71-0.28,13.05-3.52
				c10.05-9.74,12.39-25.65,20.31-36.95c6.48-9.25,24.5-23.32,34.59-10.8c4.62,5.73,1.86,14.09-0.03,21.2
				c-1.76,6.59-3.2,14.34-2.53,21.15c0.5,4.99,2.63,10.05,6.72,12.95c7.95,5.63,22.89,5.81,14.67,19.21
				c-2.52,4.1-6.43,7.14-9.44,10.9c-3.01,3.76-5.11,8.95-3.16,13.35c3.55,8.03,27.36,10.99,18.24,23.6c-2.28,3.16-5.91,5-9.28,6.95
				c-16.3,9.42-1.67,17.69-4.82,30.64c-1.13,4.66-4.66,8.45-8.74,10.95c-6.56,4.02-14.52,5.55-21.54,8.61
				c-14.26,6.23-27.01,15.5-38.93,25.4c-8.74,7.26-22.45,23.47-35.34,15.64c-7.95-4.83-2.99-18.39-2.26-25.45
				C297.52,1045.78,290.14,1036.39,281.4,1026.67z"/>
			<g>
				<g>
					<path class="st2" d="M304.03,1095.05c-0.22,0-0.44-0.04-0.66-0.12c-0.97-0.36-1.46-1.44-1.09-2.41l59.85-159.14
						c0.36-0.97,1.45-1.46,2.41-1.09c0.97,0.36,1.46,1.44,1.09,2.41l-59.85,159.14C305.5,1094.58,304.78,1095.05,304.03,1095.05z"/>
				</g>
				<g>
					<path class="st2" d="M346.41,985.03c-0.61,0-1.2-0.29-1.56-0.83c-0.57-0.86-0.34-2.02,0.52-2.6l29.12-19.41
						c0.86-0.58,2.03-0.34,2.6,0.52c0.57,0.86,0.34,2.02-0.52,2.6l-29.12,19.41C347.12,984.92,346.76,985.03,346.41,985.03z"/>
				</g>
				<g>
					<path class="st2" d="M325.3,1042.95c-0.61,0-1.2-0.29-1.56-0.83c-0.57-0.86-0.34-2.02,0.52-2.6l29.12-19.41
						c0.86-0.58,2.02-0.34,2.6,0.52s0.34,2.02-0.52,2.6l-29.12,19.41C326.02,1042.85,325.66,1042.95,325.3,1042.95z"/>
				</g>
				<g>
					<path class="st2" d="M332.27,1014.49c-0.62,0-1.22-0.3-1.58-0.86l-18.53-28.92c-0.56-0.87-0.31-2.03,0.57-2.59
						c0.87-0.56,2.03-0.3,2.59,0.57l18.53,28.92c0.56,0.87,0.31,2.03-0.57,2.59C332.96,1014.39,332.62,1014.49,332.27,1014.49z"/>
				</g>
			</g>
		</g>
		<g>
			<path class="st6" d="M265.91,1087.14c-25.13,2.85-49.44,0.04-59.48-25.93c-3.61-9.35-8.9-13.03-18.3-15.68
				c-4.57-1.29-9.36-2.77-12.61-6.24c-3.24-3.47-4.15-9.59-0.63-12.78c2.81-2.55,7.08-2.3,10.85-1.91
				c6.25,0.66,12.51,1.31,18.76,1.97c0.89,0.09,1.83,0.18,2.63-0.21c2.66-1.29,0.99-5.33-0.98-7.53
				c-7.36-8.23-14.94-16.27-22.72-24.09c-2.88-2.89-5.89-5.93-7.07-9.84s0.21-8.93,4.04-10.35c5.31-1.98,11.53,3.78,16.54,1.14
				c3.59-1.89,4.03-6.9,3.09-10.84c-0.94-3.94-2.79-7.88-2.08-11.87c0.68-3.81,3.89-7.03,7.7-7.71c3.8-0.69,7.94,1.21,9.9,4.54
				c2.16,3.66,2.02,8.89,5.57,11.23c2.98,1.96,7.05,0.72,10.01-1.26c2.97-1.98,5.55-4.68,8.93-5.83c5.73-1.96,12.72,1.85,14.19,7.72
				c1.46,5.85-1.91,12.59,1.12,17.81c2.82,4.86,9.64,5.52,15.15,4.41s11.05-3.4,16.57-2.31c1.9,0.37,3.89,1.31,4.66,3.08
				c0.84,1.94-0.03,4.18-1.07,6.02c-3.15,5.53-7.93,10.01-10.93,15.62c-3,5.61-3.71,13.34,0.9,17.72c2.42,2.31,5.8,3.21,8.86,4.58
				c3.05,1.37,6.14,3.67,6.57,6.99c0.73,5.61-5.98,8.85-9.44,13.32c-4.5,5.8-3.39,13.95-3.56,21.29
				c-0.49,20.89-20.92,20.44-36.45,16.62"/>
			<g>
				<g>
					<path class="st2" d="M269.42,1091.38c-0.76,0-1.47-0.46-1.75-1.21L233,998.01c-0.37-0.97,0.12-2.05,1.09-2.41
						c0.96-0.36,2.05,0.13,2.41,1.09l34.66,92.15c0.37,0.97-0.12,2.05-1.09,2.41C269.86,1091.34,269.63,1091.38,269.42,1091.38z"/>
				</g>
				<g>
					<path class="st2" d="M244.87,1027.66c-0.36,0-0.72-0.1-1.04-0.31l-16.86-11.24c-0.86-0.57-1.09-1.74-0.52-2.6
						c0.57-0.86,1.73-1.1,2.6-0.52l16.86,11.24c0.86,0.57,1.09,1.74,0.52,2.6C246.07,1027.37,245.48,1027.66,244.87,1027.66z"/>
				</g>
				<g>
					<path class="st2" d="M257.09,1061.21c-0.36,0-0.72-0.1-1.04-0.31l-16.86-11.24c-0.86-0.57-1.09-1.74-0.52-2.6
						c0.57-0.86,1.73-1.1,2.6-0.52l16.86,11.24c0.86,0.57,1.09,1.74,0.52,2.6C258.29,1060.91,257.7,1061.21,257.09,1061.21z"/>
				</g>
				<g>
					<path class="st2" d="M253.06,1044.73c-0.35,0-0.7-0.1-1.01-0.3c-0.87-0.56-1.13-1.72-0.57-2.59l10.73-16.75
						c0.55-0.87,1.71-1.13,2.59-0.57c0.87,0.56,1.13,1.72,0.57,2.59l-10.73,16.75C254.28,1044.42,253.68,1044.73,253.06,1044.73z"/>
				</g>
			</g>
		</g>
	</g>
</g>
<g id="Characters">
	<g id="Woman">
		<g id="Leg_1_">
			<path id="Skin_1_" class="st7" d="M499.64,1003.12l6.37,60.27l-19.93,4.2l-2.91-63.28
				C483.17,1004.31,493.72,1000.46,499.64,1003.12z"/>
			<path id="Shoe_1_" class="st4" d="M582.14,1095.35c0,0-14.93,3.31-42.73,2.28c-27.8-1.03-58.68-3.44-63.81-8.15
				c-5.14-4.72-4.85-39.9,4.34-38.87c9.19,1.02,11.28,14.72,28.81,4.66c15.02-8.62,23.97,11.79,47.57,19.6
				C579.91,1082.68,589.47,1085.81,582.14,1095.35z"/>
			<path id="Leg_3_" class="st3" d="M552.23,1019.78c-0.93-2.17-3.37-3.79-5.49-5.48c-19.37-15.44-14.64-38.99-11.54-59.57
				c7.35-48.82-0.52-98.03-3.46-146.86c-2.86-47.66,1.91-95.49,12.8-141.95c3.96-16.88,9.42-42.98-16.69-38.04
				c-12.37,2.34-24.58,1.88-36.91-0.28c-6.49-1.14,0.13-3.25-6.49-1.14c-22.55,7.2-30.98,49.82-26.35,64.67
				c9.22,29.57,12.22,57.95,13.72,89.26c2.12,44.4,9.51,88.85,4.24,132.91c-2.58,21.59-5.58,43.12-8.46,64.67
				c-1.68,12.57-12.19,40.11-5.14,51.49c9.68,15.62,52.81,2.38,67.22,2.03C540.51,1031.21,555.39,1027.15,552.23,1019.78z"/>
		</g>
		<g id="Leg">
			<path id="Skin" class="st7" d="M622.93,872.96l-13.28,59.96l-20.5-2.38l17.57-61.74C606.72,868.81,618.1,868.49,622.93,872.96z"
				/>
			<path id="Shoe" class="st4" d="M689.46,962.02c0,0-15.1,3.49-43.27,2.71c-28.18-0.78-59.49-2.93-64.74-7.66
				s-5.29-40.38,4.03-39.43c9.32,0.95,11.57,14.81,29.23,4.45c15.13-8.87,24.4,11.72,48.39,19.41S696.8,952.29,689.46,962.02z"/>
			<path id="Leg_2_" class="st8" d="M697.34,683.7c-13.23-20-58.45-19.78-99.94-14.67l-51.49-3.04l-7.01-19.52
				c0,0-81.92,25.02-82.01,25.05c2.59-0.42,2.18,32.59,3.68,35.46c11.73,22.47,45.08,41.05,71.83,41.4
				c31.78,0.42,61.76-8.74,91.46-18.55c53.93-17.8-21.7,94.61-38.86,130.21c-17.16,35.6,1.7,33.72,44.52,31.85
				c42.83-1.87,22.6,0.94,29.9-28.8C666.73,833.34,723.51,723.27,697.34,683.7z"/>
		</g>
		<g id="Head">
			<path id="Neck" class="st9" d="M535.46,416.18c0,0-6.15,45.06-6.16,45.06c-10.88,3.2-22.28,9.31-33.74,9.29
				c0.52-8.36,8.7-17.92,12.46-25.81c4.56-9.57,7.77-19.48,7.27-30.21C513.97,386.47,535.46,416.18,535.46,416.18z"/>
			<path id="Hair_1_" class="st10" d="M589.73,322.01c1.87,0.62,7.49,21.86-2.5,35.6c-9.99,13.74-4.19,11.87-13.96,21.23
				c-9.77,9.37-16.64,11.4-16.64,11.4l-11.24,4.21l1.25-23.11l11.16-36.85L593,322.01"/>
			<path id="Face" class="st7" d="M563.21,326.96c-0.02,0.05,17.69,12.06,8.3,40.79c-10.04,30.75-24.53,56.5-33.82,53.83
				c-25.7-7.37-33.34-26.58-41.1-43.17c-9.51-20.34,16.44-65.93,16.44-65.93l21.76-9.52L563.21,326.96z"/>
			<path id="Hair_2_" class="st3" d="M603.25,320c2.89-7.17-0.34-20.65-5.32-25.63c-1.92-1.92-4.43-3.25-7.05-3.21
				c-1.97,0.03-3.97,0.82-5.88,0.34c-5.74-1.45-5.73-6.34-10.99-8.53c-3.92-1.63-8.09,1.7-12.28,2.33c-3.16,0.47-6.3-0.63-9.37-1.54
				c-8.63-2.57-16.42-7.45-25.34-9.28c-7.52-1.54-15.51-1.34-22.69,1.78c-7.49,3.26-13.21,9.91-16.63,17.86
				c-2.04,4.75-3.01,10.15-2.11,15.26c-0.74-4.2-8.51-0.39-9.84,1.13c-5.23,5.97-18.41,23.44-16.52,31.04
				c1.5,6.02-3.15,11.47-1.83,17.57c1.57,7.26,20.56,11.45,23.96,18.05c3.9,7.57,12.53,11.97,20.38,10.61
				c-1.83-6.71-3.64-13.57-3.5-20.61s-6.52-39.42,28.5-43.41c13.92-1.59,29.49,11.2,43.17,12.88c6.5,0.8,13.13,0.07,19.45-1.91
				c4.88-1.53,10.06-8.19,13.08-13.13C602.76,321.09,603.03,320.56,603.25,320z"/>
		</g>
		<path id="Arm" class="st7" d="M751.7,418.21c-0.85-0.36-1.74,0.39-2.36,1.08c-5.64,6.24-11.29,12.47-16.93,18.71
			c-1.1,1.22-2.25,2.47-3.73,3.18c-1.48,0.71-3.4,0.74-4.63-0.35c-1.48-1.31-1.43-3.6-1.26-5.58c0.25-2.99,5.21-8.92,0.47-10.23
			c-6.73,3.27-13.17,17.15-15.16,24.13c-2.65,7.42,3.35,12.69-0.7,19.09c-7.52,11.89-14.84,23.87-22.96,35.36
			c-4.26,6.02-8.64,11.95-13.04,17.85c-1.99,2.67-10.29,17.36-13.19,17.66c-9.64,13.02-18.96,26.54-29.34,38.99
			c-3.96,4.75-34.22-22.64-34.22-22.64c-26.53-20.51-31.02-36.69-31.02-36.69l-23.21,5.96c0,0,8.24,21,24.41,34.84
			c17.64,15.09,40.19,38.92,52.55,48.21c12.37,9.29,13.23,4.78,17.9,0.3c9.83-9.47,17.05-23.96,24.62-35.21
			c13.06-19.42,25.98-38.95,38.47-58.75c6.05-9.59,12.44-19.83,17.97-30.05c5.3-9.79,9.72-15.18,19.43-20.87
			c8.17-4.79,12.74-12.29,14.2-21.74c1.04-6.74,0.46-13.69,2.32-20.31C752.59,420.1,752.71,418.63,751.7,418.21z"/>
		<g id="Body">
			<path class="st11" d="M544.83,548.71c-2.84-27.18,10.29-70.44-5.55-92.5c-1.62-2.26-3.37-4.52-5.73-6
				c-29.8-18.7-50.42,10.36-59.94,35.93c-8.26,22.17-7.24,42.57-7.85,65.7c-1.03,38.98-10.1,76.9-21.68,113.95
				c-4.13,13.22-5.23,28.61,6.46,30.62c15.79,2.71,19.19-16.74,34.25-21.76c13.76-4.59,24.88-1.77,39.92-0.95
				c7.46,0.41,31.82-4.5,30.33-18.37c-3.52-32.88-8.81-61.23-8.98-84.13C546.01,563.77,545.62,556.24,544.83,548.71z"/>
			<path class="st5" d="M569.23,515.17c0,0-32.25-66.18-52.82-45.74c-20.56,20.44,27.35,87.18,27.35,87.18l33.25-34.05
				L569.23,515.17z"/>
		</g>
		<path id="Hair" class="st3" d="M567.62,323.99c7.69-4.4,9.92-14.34,10.7-23.17c0.85-9.59,0.69-22.55-7.39-29.31
			c-3.12-2.61-6.94-4.23-10.84-5.4c-19.11-5.75-42.22-4.15-60.8,2.9c-18.95,7.19-33,23.6-39.72,42.44
			c-3.38,9.47-5.05,19.56-4.98,29.61c0.07,10.62,4.8,21.67-3.44,30.45c2.96,0.01,5.92-0.36,8.79-1.1
			c-10.49,2.7-27.39,3.28-27.82,18.3c-0.17,5.98,3.72,11.19,7,16.2c3.28,5.01,6.18,11.24,3.9,16.78
			c-2.87,6.99-12.84,9.74-14.13,17.2c-1.53,8.86,6.84,12.92,10.21,19.82c4.25,8.7,0.18,18.82-0.8,27.84
			c-0.87,8,6.51,11.68,11.33,16.46c13.97,13.84,13.78,29.58-1.49,44.87c-0.31,0.31-0.19,0.91,0.03,1.29
			c0.23,0.4,0.73,0.57,1.18,0.69c19.75,5.16,45.39-13.91,49.94-32.94c2.05-8.57-3.18-16.59-0.89-24.82
			c1.83-6.58,8.53-10.3,14.31-13.92c13.42-8.4,10.76-29.8,9.05-45.54c-1.49-13.73,2.07-16.35-5.75-27.73
			c-4.07-5.92-7.26-12.4-9.96-19.06c-3.59-8.86-7.77-2.93-7.46-12.48c0.34-10.48,5.53-20.2,14.02-26.34
			c4.4-3.18,9.6-5.41,14.95-6.37c5.67-1.02,11.45-1.98,15.86-5.97c4.12-3.73,9.81-12.18,16.19-11.61
			c7.96,0.71,17.09-1.28,21.22-8.11"/>
	</g>
</g>
</svg>
